<?xml version="1.0" encoding="utf-8"?>
<!-- Generator: Adobe Illustrator 19.2.0, SVG Export Plug-In . SVG Version: 6.00 Build 0)  -->
<svg version="1.1" id="Layer_1" xmlns="http://www.w3.org/2000/svg" xmlns:xlink="http://www.w3.org/1999/xlink" x="0px" y="0px"
	 viewBox="0 0 196 100" style="enable-background:new 0 0 196 100;" xml:space="preserve">
<style type="text/css">
	.st0{fill:#357D96;}
	.st1{fill:#D2D2CA;}
	.st2{fill:#91AB5A;}
	.st3{fill:#BA7B76;}
	.st4{fill:#FDBA4D;}
	.st5{fill:#8B0021;}
	.st6{fill:#5B96AD;}
</style>
<title>Maniac_Logo2_cmyk</title>
<path class="st0" d="M14,30.4h2.6l4.3,6.7l4.3-6.7h2.7v14.2h-2.5V34.4l-4.5,6.7h-0.1l-4.4-6.6v10.1H14V30.4z"/>
<path class="st0" d="M40.6,30.3H43l6.2,14.3h-2.6l-1.4-3.4h-6.7L37,44.6h-2.6L40.6,30.3z M44.2,39l-2.5-5.7L39.3,39L44.2,39z"/>
<path class="st0" d="M55.7,30.4H58l7.6,9.8v-9.8h2.4v14.2H66l-7.8-10.1v10.1h-2.5L55.7,30.4z"/>
<path class="st0" d="M75.9,30.4h2.5v14.2h-2.5V30.4z"/>
<path class="st0" d="M91.3,30.3h2.3l6.2,14.3h-2.6l-1.4-3.4H89l-1.5,3.4H85L91.3,30.3z M94.8,39l-2.4-5.7L90,39L94.8,39z"/>
<path class="st0" d="M104.8,37.6L104.8,37.6c-0.1-4,3.1-7.3,7-7.3c0.1,0,0.2,0,0.3,0c2.1-0.1,4.1,0.7,5.6,2.2l-1.6,1.9
	c-1-1.1-2.5-1.7-4-1.8c-2.6,0-4.7,2.2-4.7,4.9c0,0,0,0.1,0,0.1l0,0c-0.1,2.6,1.9,4.9,4.5,5c0.1,0,0.1,0,0.2,0c1.6,0,3-0.7,4.1-1.8
	l1.6,1.6c-1.4,1.7-3.6,2.6-5.8,2.5c-3.9,0-7.2-3.1-7.2-7.1C104.8,37.7,104.8,37.6,104.8,37.6z"/>
<rect x="63.6" y="58.1" class="st1" width="2.5" height="2.5"/>
<rect x="76" y="58.1" class="st1" width="2.5" height="2.5"/>
<rect x="88.3" y="58.1" class="st1" width="2.5" height="2.5"/>
<rect x="100.5" y="58.1" class="st1" width="2.5" height="2.5"/>
<rect x="113" y="58.1" class="st1" width="2.5" height="2.5"/>
<rect x="125.2" y="58.1" class="st1" width="2.5" height="2.5"/>
<rect x="137.5" y="58.1" class="st1" width="2.5" height="2.5"/>
<rect x="149.8" y="58.1" class="st1" width="2.5" height="2.5"/>
<rect x="98.1" y="72.3" class="st2" width="7.6" height="3.8"/>
<path class="st0" d="M144.4,54h3.1v11.4h7.1v2.8h-10.2L144.4,54z"/>
<path class="st0" d="M161.8,53.9h2.9l6.1,14.3h-3.3l-1.3-3.2h-6l-1.3,3.2h-3.2L161.8,53.9z M165.1,62.3l-1.9-4.6l-1.9,4.6H165.1z"/>
<path class="st0" d="M172.9,54h6.6c1.4-0.1,2.7,0.4,3.7,1.2c0.7,0.6,1,1.5,1,2.4l0,0c0,1.3-0.7,2.5-1.9,3.1c1.6,0.6,2.6,1.6,2.6,3.5
	l0,0c0,2.6-2.1,3.9-5.3,3.9H173L172.9,54z M178.9,59.8c1.4,0,2.2-0.4,2.2-1.5v-0.1c0-0.9-0.7-1.5-2-1.5H176v3L178.9,59.8z
	 M179.7,65.5c1.4,0,2.2-0.5,2.2-1.5l0,0c0-1-0.7-1.5-2.3-1.5H176v3.1L179.7,65.5z"/>
<rect x="98.1" y="49.4" class="st3" width="7.6" height="3.8"/>
<rect x="73.4" y="49.4" class="st4" width="7.6" height="3.8"/>
<rect x="122.7" y="49.4" class="st2" width="7.6" height="3.8"/>
<rect x="110.4" y="49.4" class="st1" width="7.6" height="3.8"/>
<rect x="98.1" y="22.1" class="st3" width="7.6" height="3.8"/>
<rect x="85.7" y="22.1" class="st2" width="7.6" height="3.8"/>
<rect x="73.4" y="22.1" class="st5" width="7.6" height="3.8"/>
<rect x="135" y="22.1" class="st1" width="7.6" height="3.8"/>
<rect x="122.7" y="22.1" class="st4" width="7.6" height="3.8"/>
<rect x="110.4" y="22.1" class="st1" width="7.6" height="3.8"/>
<rect x="135" y="14.3" class="st4" width="7.6" height="3.8"/>
<rect x="110.4" y="14.3" class="st6" width="7.6" height="3.8"/>
<rect x="98.1" y="64.5" class="st1" width="7.6" height="3.8"/>
<rect x="73.4" y="64.5" class="st1" width="7.6" height="3.8"/>
<rect x="122.7" y="64.5" class="st3" width="7.6" height="3.8"/>
<rect x="85.7" y="79.9" class="st1" width="7.6" height="3.8"/>
<rect x="73.4" y="79.9" class="st2" width="7.6" height="3.8"/>
<rect x="135" y="79.9" class="st5" width="7.6" height="3.8"/>
<rect x="122.7" y="79.9" class="st6" width="7.6" height="3.8"/>
<rect x="110.4" y="79.9" class="st1" width="7.6" height="3.8"/>
<rect x="51.2" y="58.1" class="st1" width="2.5" height="2.5"/>
</svg>
