<svg id="Layer_1" data-name="Layer 1" xmlns="http://www.w3.org/2000/svg" viewBox="0 0 170.07 69.36"><defs><style>.cls-1{fill:#357d96;}.cls-2{fill:#d2d2ca;}.cls-3{fill:#ba7b76;}.cls-4{fill:#fdba4d;}.cls-5{fill:#91ab5a;}.cls-6{fill:#8b0021;}.cls-7{fill:#5b96ad;}</style></defs><title>Maniac_Logo3_cmyk</title><path class="cls-1" d="M95.44,161.41h2.65l4.32,6.71,4.32-6.71h2.66V175.6H106.9V165.42l-4.49,6.69h-.08l-4.44-6.65V175.6H95.44Z" transform="translate(-95.44 -145.32)"/><path class="cls-1" d="M122.13,161.31h2.31l6.24,14.29h-2.63l-1.44-3.42H119.9l-1.47,3.42h-2.55ZM125.7,170l-2.46-5.67L120.81,170Z" transform="translate(-95.44 -145.32)"/><path class="cls-1" d="M137.17,161.41h2.32l7.6,9.81v-9.81h2.45V175.6h-2.08l-7.83-10.1v10.1h-2.46Z" transform="translate(-95.44 -145.32)"/><path class="cls-1" d="M157.39,161.41h2.5V175.6h-2.5Z" transform="translate(-95.44 -145.32)"/><path class="cls-1" d="M172.76,161.31h2.32l6.24,14.29h-2.63l-1.44-3.42h-6.72l-1.46,3.42h-2.55Zm3.57,8.65-2.45-5.67L171.45,170Z" transform="translate(-95.44 -145.32)"/><path class="cls-1" d="M186.31,168.55v-.05a7.18,7.18,0,0,1,7.32-7.34,7.43,7.43,0,0,1,5.56,2.21l-1.6,1.85a5.65,5.65,0,0,0-4-1.77,4.77,4.77,0,0,0-4.68,5v0a4.79,4.79,0,0,0,4.68,5.05,5.58,5.58,0,0,0,4.08-1.84l1.6,1.62a7.33,7.33,0,0,1-5.76,2.52A7.14,7.14,0,0,1,186.31,168.55Z" transform="translate(-95.44 -145.32)"/><path class="cls-1" d="M224.87,184.67H228V196h7.07v2.84h-10.2Z" transform="translate(-95.44 -145.32)"/><path class="cls-1" d="M242.29,184.57h2.88l6.09,14.29H248l-1.3-3.18h-6l-1.3,3.18h-3.18Zm3.29,8.35-1.89-4.6-1.88,4.6Z" transform="translate(-95.44 -145.32)"/><path class="cls-1" d="M253.45,184.67H260a5.09,5.09,0,0,1,3.71,1.26,3.23,3.23,0,0,1,1,2.41v0a3.31,3.31,0,0,1-1.86,3.06c1.64.63,2.65,1.58,2.65,3.49v0c0,2.6-2.11,3.89-5.31,3.89h-6.75Zm5.92,5.74c1.38,0,2.25-.45,2.25-1.5v0c0-.94-.73-1.46-2.05-1.46h-3.08v3Zm.83,5.72c1.38,0,2.21-.49,2.21-1.55v0c0-.95-.71-1.54-2.31-1.54h-3.61v3.13Z" transform="translate(-95.44 -145.32)"/><circle class="cls-2" cx="124.91" cy="44.93" r="1.24"/><circle class="cls-2" cx="112.58" cy="44.93" r="1.24"/><circle class="cls-2" cx="137.09" cy="44.93" r="1.24"/><circle class="cls-2" cx="100.25" cy="44.93" r="1.24"/><circle class="cls-2" cx="87.92" cy="44.93" r="1.24"/><circle class="cls-2" cx="75.6" cy="44.93" r="1.24"/><circle class="cls-2" cx="63.27" cy="44.93" r="1.24"/><circle class="cls-2" cx="50.94" cy="44.93" r="1.24"/><circle class="cls-2" cx="38.61" cy="44.93" r="1.24"/><rect class="cls-3" x="181.46" y="178.48" width="3.81" height="7.62" transform="translate(270.22 -146.39) rotate(90)"/><rect class="cls-4" x="156.81" y="178.48" width="3.81" height="7.62" transform="translate(245.56 -121.74) rotate(90)"/><rect class="cls-5" x="206.11" y="178.48" width="3.81" height="7.62" transform="translate(294.87 -171.04) rotate(90)"/><rect class="cls-2" x="193.79" y="178.48" width="3.81" height="7.62" transform="translate(282.54 -158.72) rotate(90)"/><rect class="cls-3" x="181.46" y="151.18" width="3.81" height="7.62" transform="translate(242.91 -173.7) rotate(90)"/><rect class="cls-5" x="169.13" y="151.18" width="3.81" height="7.62" transform="translate(230.58 -161.37) rotate(90)"/><rect class="cls-6" x="156.81" y="151.18" width="3.81" height="7.62" transform="translate(218.26 -149.04) rotate(90)"/><rect class="cls-2" x="218.44" y="151.18" width="3.81" height="7.62" transform="translate(279.89 -210.68) rotate(90)"/><rect class="cls-4" x="206.11" y="151.18" width="3.81" height="7.62" transform="translate(267.56 -198.35) rotate(90)"/><rect class="cls-2" x="193.79" y="151.18" width="3.81" height="7.62" transform="translate(255.24 -186.02) rotate(90)"/><rect class="cls-4" x="218.44" y="143.42" width="3.81" height="7.62" transform="translate(272.13 -218.44) rotate(90)"/><rect class="cls-7" x="193.79" y="143.42" width="3.81" height="7.62" transform="translate(247.47 -193.79) rotate(90)"/><rect class="cls-2" x="181.46" y="193.61" width="3.81" height="7.62" transform="translate(285.34 -131.27) rotate(90)"/><rect class="cls-2" x="156.81" y="193.61" width="3.81" height="7.62" transform="translate(260.68 -106.62) rotate(90)"/><rect class="cls-3" x="206.11" y="193.61" width="3.81" height="7.62" transform="translate(309.99 -155.92) rotate(90)"/><rect class="cls-5" x="181.46" y="201.28" width="3.81" height="7.62" transform="translate(293.02 -123.59) rotate(90)"/><rect class="cls-2" x="169.13" y="208.97" width="3.81" height="7.62" transform="translate(288.37 -103.58) rotate(90)"/><rect class="cls-5" x="156.81" y="208.97" width="3.81" height="7.62" transform="translate(276.05 -91.25) rotate(90)"/><rect class="cls-6" x="218.44" y="208.97" width="3.81" height="7.62" transform="translate(337.68 -152.89) rotate(90)"/><rect class="cls-7" x="206.11" y="208.97" width="3.81" height="7.62" transform="translate(325.35 -140.56) rotate(90)"/><rect class="cls-2" x="193.79" y="208.97" width="3.81" height="7.62" transform="translate(313.03 -128.23) rotate(90)"/></svg>