<?xml version="1.0" encoding="utf-8"?>
<!-- Generator: Adobe Illustrator 19.2.0, SVG Export Plug-In . SVG Version: 6.00 Build 0)  -->
<svg version="1.1" id="Layer_1" xmlns="http://www.w3.org/2000/svg" xmlns:xlink="http://www.w3.org/1999/xlink" x="0px" y="0px"
	 viewBox="0 0 167 167" style="enable-background:new 0 0 167 167;" xml:space="preserve">
<style type="text/css">
	.st0{fill:#8B0021;}
	.st1{fill:#357D96;}
	.st2{fill:#FFFFFF;}
	.st3{fill:#FDBA4D;}
	.st4{fill:#AEB17E;}
	.st5{fill:#3E1E2A;}
	.st6{fill:#C68125;}
	.st7{fill:#91AB5A;}
	.st8{fill:#795965;}
	.st9{enable-background:new    ;}
</style>
<g>
	<rect x="81.3" y="6" class="st0" width="3.8" height="7.6"/>
	<polygon class="st1" points="128.7,53.5 101.7,53.5 83.7,53.5 65.7,53.5 38.7,53.5 38.7,134.6 65.7,134.6 65.7,98.6 83.7,110.6
		101.7,98.6 101.7,134.6 128.7,134.6 	"/>
	<rect x="73.7" y="65.4" class="st2" width="3.8" height="7.6"/>
	<rect x="81.3" y="76.7" class="st2" width="3.8" height="7.6"/>
	<rect x="88.9" y="65.4" class="st2" width="3.8" height="7.6"/>
	<rect x="88.9" y="76.7" class="st2" width="3.8" height="7.6"/>
	<rect x="73.7" y="16.5" class="st3" width="3.8" height="7.6"/>
	<rect x="88.9" y="16.5" class="st4" width="3.8" height="7.6"/>
	<rect x="81.3" y="28.9" class="st1" width="3.8" height="7.6"/>
	<rect x="81.3" y="41.2" class="st5" width="3.8" height="7.6"/>
	<rect x="72.8" y="41.2" class="st6" width="3.8" height="7.6"/>
	<rect x="81.4" y="87.9" class="st2" width="3.8" height="7.6"/>
	<rect x="88.9" y="28.9" class="st7" width="3.8" height="7.6"/>
	<rect x="88.9" y="41.2" class="st8" width="3.8" height="7.6"/>
	<rect x="88.9" y="53.4" class="st2" width="3.8" height="7.6"/>
	<g class="st9">
		<path class="st0" d="M15.4,145.4H19l4,6.5l4-6.5h3.6v15.3h-3.3v-10l-4.3,6.5h-0.1l-4.3-6.5v9.9h-3.3v-15.2H15.4z"/>
		<path class="st0" d="M39.5,145.4h3.1l6.5,15.4h-3.5l-1.4-3.4h-6.4l-1.4,3.4H33L39.5,145.4z M43.1,154.2l-2-5l-2,5H43.1z"/>
		<path class="st0" d="M51.5,145.4h3.1l7.2,9.4v-9.4h3.3v15.3h-2.9l-7.4-9.7v9.7h-3.3L51.5,145.4L51.5,145.4z"/>
		<path class="st0" d="M68.9,145.4h3.4v15.3h-3.4V145.4z"/>
		<path class="st0" d="M81.3,145.4h3.1l6.5,15.4h-3.5l-1.4-3.4h-6.5l-1.4,3.4h-3.3L81.3,145.4z M84.8,154.2l-2-5l-2,5H84.8z"/>
		<path class="st0" d="M91.7,153.1L91.7,153.1c0-4.4,3.3-7.9,8-7.9c2.9,0,4.6,1,6,2.4l-2.1,2.5c-1.2-1.1-2.4-1.7-3.9-1.7
			c-2.6,0-4.4,2.1-4.4,4.8l0,0c0,2.6,1.8,4.8,4.4,4.8c1.7,0,2.8-0.7,4-1.8l2.1,2.2c-1.6,1.7-3.3,2.7-6.3,2.7
			C95,160.9,91.7,157.4,91.7,153.1z"/>
	</g>
	<g class="st9">
		<path class="st0" d="M112.4,145.4h1.7v13.7h8.6v1.6h-10.3V145.4z"/>
	</g>
	<g class="st9">
		<path class="st0" d="M130.3,145.4h1.6l7,15.4H137l-1.8-4h-8.3l-1.8,4h-1.8L130.3,145.4z M134.6,155.2l-3.5-7.8l-3.5,7.8H134.6z"/>
	</g>
	<g class="st9">
		<path class="st0" d="M140.1,145.4h6.5c1.7,0,3.1,0.5,4,1.4c0.6,0.7,1,1.5,1,2.4l0,0c0,2-1.2,3-2.4,3.5c1.8,0.5,3.3,1.6,3.3,3.7
			l0,0c0,2.6-2.2,4.2-5.5,4.2h-6.8v-15.2H140.1z M146.3,152.2c2.1,0,3.5-0.9,3.5-2.7l0,0c0-1.5-1.2-2.5-3.4-2.5h-4.6v5.3h4.5V152.2z
			 M146.9,159.2c2.3,0,3.8-1,3.8-2.7l0,0c0-1.7-1.4-2.6-4.1-2.6h-4.8v5.4L146.9,159.2L146.9,159.2z"/>
	</g>
</g>
</svg>
